<svg width="96" height="96" viewBox="0 0 96 96" xmlns="http://www.w3.org/2000/svg">
  <defs>
    <linearGradient id="bg" x1="12" y1="10" x2="88" y2="82" gradientUnits="userSpaceOnUse">
      <stop stop-color="#5AF8FF"/>
      <stop offset="0.5" stop-color="#5F8CFF"/>
      <stop offset="1" stop-color="#9A5CFF"/>
    </linearGradient>
    <linearGradient id="mark" x1="18" y1="24" x2="78" y2="72" gradientUnits="userSpaceOnUse">
      <stop stop-color="#0A0D18"/>
      <stop offset="1" stop-color="#0F172A"/>
    </linearGradient>
  </defs>
  <rect x="6" y="6" width="84" height="84" rx="22" fill="url(#bg)"/>
  <rect x="14" y="14" width="68" height="68" rx="18" fill="url(#mark)" opacity="0.92"/>
  <path
    d="M26 64.5V31.5C26 28.46 28.46 26 31.5 26H38.5C41.54 26 44 28.46 44 31.5V48L52.5 33.5C53.9 31.12 56.34 29.5 59.04 29.5H64.5C68.09 29.5 71 32.41 71 36V64.5"
    fill="none"
    stroke="#5AF8FF"
    stroke-width="6"
    stroke-linecap="round"
    stroke-linejoin="round"
  />
  <path
    d="M26 60C36 60 40 68 48 68C56 68 60 60 70 60"
    fill="none"
    stroke="#9A5CFF"
    stroke-width="5"
    stroke-linecap="round"
  />
  <circle cx="32" cy="32" r="4" fill="#5AF8FF" opacity="0.8"/>
  <circle cx="64" cy="32" r="4" fill="#9A5CFF" opacity="0.85"/>
</svg>
